# xmcd CD database file
#
# Track frame offsets:
#	150
#	14727
#	26672
#	42107
#	69827
#	82342
#	98202
#	112475
#	127037
#	143540
#	156487
#	169837
#	181987
#	193560
#	206755
#	218692
#	228877
#	242172
#	247955
#	259955
#
# Disc length: 3583 seconds
#
# Revision: 5
# Processed by: cddbd v1.5.2PL0 Copyright (c) Steve Scherf et al.
# Submitted via: CDex 1.72
#
DISCID=260dfd14
DTITLE=RD (USA-95-Rediscovered Blues-bls) - Rediscovered Blues [CD2]
DYEAR=1995
DGENRE=Blues
TTITLE0=Sonny Terry and Brownie McGhee - Baby, Please Don't Go
TTITLE1=Sonny Terry and Brownie McGhee - Twelve Gates To The City
TTITLE2=Sonny Terry and Brownie McGhee - Pawnshop Blues
TTITLE3=Sonny Terry and Brownie McGhee - Brownie's Guitar Blues
TTITLE4=Big Joe Williams - Oh Baby
TTITLE5=Big Joe Williams - Hand Me Down My Old Walking Stick
TTITLE6=Big Joe Williams - Shady Grove
TTITLE7=Big Joe Williams - Mama Don't Like Me Runnin' Round
TTITLE8=Big Joe Williams - Sittin' 'N' Thinkin'
TTITLE9=Big Joe Williams - Scardie Mama
TTITLE10=Big Joe Williams - Blues 'Round The World
TTITLE11=Big Joe Williams - Everybody's Gonna Miss Me When I'm Gone
TTITLE12=Big Joe Williams - Pearly Mae
TTITLE13=Big Joe Williams - Baby Keeps On Breaking 'Em Down
TTITLE14=Big Joe Williams - Church Bells Ring
TTITLE15=Big Joe Williams - Take It All
TTITLE16=Big Joe Williams - Toledo To Buffalo
TTITLE17=Big Joe Williams - She'll Be Coming 'Round The Mountain
TTITLE18=Big Joe Williams - Old Folks Tavern
TTITLE19=Big Joe Williams - Baby, Please Don't Go
EXTD=YEAR: 1995
EXTT0=
EXTT1=
EXTT2=
EXTT3=
EXTT4=
EXTT5=
EXTT6=
EXTT7=
EXTT8=
EXTT9=
EXTT10=
EXTT11=
EXTT12=
EXTT13=
EXTT14=
EXTT15=
EXTT16=
EXTT17=
EXTT18=
EXTT19=
PLAYORDER=
